<svg width="1048" height="49" viewBox="0 0 1048 49" fill="none" xmlns="http://www.w3.org/2000/svg">
<g clip-path="url(#clip0_356_1799)">
<path d="M42.9127 28.2865H46.7762C48.2836 28.2865 48.8568 28.7965 48.8568 30.0456C48.8568 31.2485 48.2833 31.7579 46.7762 31.7579H42.9127V28.2865ZM36.9275 40.9211H42.913V35.7835H49.3242C53.569 35.7835 55.0972 33.3317 55.0972 30.1619C55.0972 26.4824 53.5258 24.4002 49.281 24.4002H36.9275V40.9211ZM57.0712 24.4002H73.1806V28.4255H63.0567V30.6469H72.4601V34.6739H63.0567V36.895H73.1806V40.9211H57.0712V24.4002ZM81.6715 28.2865H85.5347C87.0418 28.2865 87.6153 28.7965 87.6153 30.0456C87.6153 31.2485 87.0418 31.7579 85.5347 31.7579H81.6715V28.2865ZM75.686 40.9211H81.6715V35.7835H88.0815C92.3274 35.7835 93.856 33.3317 93.856 30.1619C93.856 26.4824 92.2845 24.4002 88.0389 24.4002H75.686V40.9211ZM99.6496 33.91C96.7209 33.4233 95.5119 31.5723 95.5119 29.259C95.5119 24.9776 99.3539 23.8217 104.277 23.8217C111.026 23.8217 113.807 25.7415 114.02 29.236H107.057C107.057 28.5648 106.696 28.1474 106.145 27.9163C105.615 27.6624 104.936 27.5701 104.277 27.5701C102.494 27.5701 101.879 28.0553 101.879 28.7501C101.879 29.2121 102.069 29.514 102.664 29.6061L109.817 30.7626C112.831 31.2485 114.699 32.7757 114.699 35.5748C114.699 39.6023 111.685 41.4997 104.956 41.4997C100.35 41.4997 95.3196 40.8057 95.2987 35.9464H102.515C102.536 36.501 102.728 36.8711 103.153 37.1259C103.597 37.3576 104.256 37.4736 105.189 37.4736C107.057 37.4736 107.567 36.9178 107.567 36.1309C107.567 35.645 107.29 35.1594 106.486 35.0213L99.6496 33.91ZM116.651 24.4002H122.636V40.9211H116.651V24.4002ZM144.819 34.4885C144.437 36.6636 143.757 38.4222 142.271 39.6251C140.807 40.8285 138.514 41.4997 134.864 41.4997C131.234 41.4997 124.506 41.2213 124.506 32.6611C124.506 24.0992 131.234 23.8214 134.864 23.8214C138.471 23.8214 144.033 24.33 144.819 30.8792H138.069C137.899 29.698 137.176 27.986 134.864 27.986C132.422 27.986 130.872 29.3048 130.872 32.6608C130.872 36.016 132.38 37.334 134.566 37.334C136.456 37.334 137.581 36.478 138.069 34.4882L144.819 34.4885ZM152.651 32.6614C152.651 29.3051 154.201 27.9865 156.642 27.9865C159.082 27.9865 160.633 29.3054 160.633 32.6614C160.633 36.0166 159.082 37.3345 156.642 37.3345C154.201 37.3343 152.651 36.0163 152.651 32.6614ZM146.282 32.6614C146.282 41.2213 153.011 41.4999 156.642 41.4999C160.271 41.4999 167 41.2216 167 32.6614C167 24.0994 160.271 23.8217 156.642 23.8217C153.011 23.8217 146.282 24.0992 146.282 32.6614Z" fill="#516670"/>
<path d="M13.3147 7.5C8.10669 7.5 2 11.3965 2 14.9583C2 16.3361 3.21575 17.5 5.73197 17.5C11.5732 17.5 17 13.3397 17 10.1047C17 8.40238 15.423 7.5 13.3147 7.5ZM15.3938 10.0041C15.3938 12.731 10.3427 16.0643 6.12023 16.0643C4.25471 16.0643 3.24675 15.3032 3.24675 14.0473C3.24675 11.2813 8.3553 8.00465 12.3159 8.00465C14.8981 8.00465 15.3938 9.36681 15.3938 10.0041Z" fill="#516670"/>
<path d="M0.698752 15.7299C0.559119 15.9826 0 17.1282 0 18.302C0 20.479 2.10211 22.5 5.96852 22.5C13.4066 22.5 22 16.7711 22 11.4532C22 9.06616 19.8405 7.76833 18.3411 7.5L18.313 7.59312C18.7794 7.7475 20.4877 8.57852 20.4877 10.7049C20.4877 14.9421 12.9004 20.7154 5.34266 20.7154C2.44929 20.7154 0.626447 19.221 0.626447 17.044C0.626447 16.3554 0.763446 15.9018 0.799745 15.7704L0.698752 15.7299Z" fill="#516670"/>
<path d="M25.5838 12.5C25.786 12.6533 27 13.664 27 15.5752C27 22.0919 16.7778 28.5 7.74071 28.5C2.35144 28.5 -0.105327 25.842 0.00345595 23.4819H0.100056C0.31124 24.7076 2.06106 26.9008 6.7779 26.9008C15.8264 26.9008 25.9293 20.2702 25.9293 14.4608C25.9293 13.4643 25.6583 12.8434 25.5052 12.5672L25.5838 12.5Z" fill="#516670"/>
<path d="M28.7365 18.5C28.779 18.6461 29 19.3031 29 20.3319C29 27.9651 18.6172 34.5 9.58714 34.5C4.93947 34.5 2.51243 32.1342 2 31.1734L2.08269 31.1093C3.36871 32.2879 5.90173 33.1834 8.8578 33.1834C16.833 33.1834 28.7333 26.8249 28.627 18.5278L28.7365 18.5Z" fill="#516670"/>
<path d="M27.3153 30.5716C26.6919 31.3184 25.9079 32.0703 24.9894 32.7842C23.2996 23.2551 16.1581 14.9226 11.1091 12.4905L11.0009 12.5644C16.0786 16.6505 22.1349 24.5864 24.4901 33.158C23.2888 34.0233 21.9911 34.752 20.622 35.33C15.8305 29.9723 11.3633 19.6395 9.92377 13.0827L9.77735 13.1259C9.80983 19.4905 14.4184 30.2952 20.0387 35.5674C18.7496 36.0675 17.4096 36.4306 16.0415 36.6502C10.6541 34.5576 6.81937 27.8552 6.81937 20.9893C6.81937 16.5072 8.21312 13.7345 8.48277 13.1671L8.36795 13.1225C8.04177 13.6063 6 16.3776 6 21.2165C6 28.9773 9.90348 34.9093 15.0859 36.7773C13.2327 36.9772 11.3589 36.891 9.53293 36.5217L9.49437 36.64C10.0487 36.8401 11.9296 37.6143 14.7988 37.6143C21.2886 37.6143 25.6757 33.6607 27.4417 30.6554L27.3153 30.5716Z" fill="#516670"/>
<path d="M27.883 29.564C28.2695 21.6378 21.2982 12.7116 11.7942 11.6083L11.8104 11.5C21.1799 11.5 28.3626 20.0048 28.3626 26.7143C28.3536 28.111 28.2411 28.9764 28.0405 29.6047L27.883 29.564Z" fill="#516670"/>
</g>
<g clip-path="url(#clip1_356_1799)">
<path d="M276.62 8L254 41H259.655L282 8H276.62Z" fill="#516670"/>
<path d="M289.15 27.617V10H285.303L265 38H271.26L283.571 20.9593V38H288.148L300.383 20.8541V38H306V10H301.939L289.15 27.617Z" fill="#516670"/>
<path d="M342 10H335.696L328.82 19.5957L322.142 10.0398H315.838L325.628 24.0504L323.943 26.4013L312.439 10H308V37.9721H313.345L313.355 30.3244H319.958L320.549 31.1383L315.653 37.9721H321.957L323.721 35.5093L325.529 38L332.061 37.9721L327.062 30.8464L328.741 28.5046L335.356 37.9721H341.66L331.932 24.0504L342 10ZM313.355 25.3931L313.364 20.1994L317.072 25.3931H313.355Z" fill="#516670"/>
<path d="M347.913 13.1432C347.913 12.3747 347.469 12 346.527 12H345V16H345.616V14.2795H346.264L347.341 16H348L346.872 14.2331C347.459 14.1687 347.913 13.8675 347.913 13.1432ZM346.259 13.7756H345.616V12.5039H346.428C346.843 12.5039 347.297 12.5857 347.297 13.1178C347.297 13.7473 346.799 13.7756 346.259 13.7756Z" fill="#516670"/>
<path d="M346.011 10C343.829 10 342 11.7213 342 13.9791C342 16.2787 343.829 18 346.011 18C348.184 18 350 16.2783 350 13.9791C350 11.7213 348.184 10 346.011 10ZM346.011 17.4123C344.149 17.4123 342.725 15.9373 342.725 13.9791C342.725 12.0653 344.149 10.5877 346.011 10.5877C347.851 10.5877 349.277 12.0653 349.277 13.9791C349.277 15.9373 347.851 17.4123 346.011 17.4123Z" fill="#516670"/>
<path d="M258.014 32.803H256.615V25.961H262.857L265 23.1344V21.1275H256.615V15.0162H264.627V10H251.12V37.3611L243.388 28.3346C247.259 27.1626 250.08 23.4752 250.08 19.3038C250.08 14.1742 245.832 10.0164 240.595 10.0164L231 10V18.1178V37.9996H236.402V28.879L244.227 38H254.475L258.014 32.803ZM240.407 23.0929L236.402 23.1344V14.9668H240.407C242.699 14.9668 244.558 16.7857 244.558 19.0292C244.558 21.2732 242.699 23.0929 240.407 23.0929Z" fill="#516670"/>
<path d="M265 39V36L262 39H265Z" fill="#516670"/>
</g>
<g clip-path="url(#clip2_356_1799)">
<path d="M459.335 14.1156H463.485L473.063 26.7073V14.1156L477.503 14.1156V34.5651H473.678L463.774 21.565V34.5651H459.335V14.1156Z" fill="#516670"/>
<path d="M487.607 26.5016L479.75 14.1156H485.01L489.888 22.3254L494.854 14.1156H499.963L492.107 26.415V34.5651H487.607V26.5016Z" fill="#516670"/>
<path d="M501.891 25.801V14.1156H506.391V25.6849C506.391 29.014 508.052 30.738 510.8 30.738C513.544 30.738 515.212 29.0713 515.212 25.8317V14.1156L519.708 14.1156V25.6546C519.708 31.8463 516.231 34.8854 510.739 34.8854C505.251 34.8854 501.891 31.8192 501.891 25.801Z" fill="#516670"/>
<path d="M449.998 42.5V6.5L414 6.5V42.5L449.998 42.5ZM430.777 25.1713C427.221 22.8453 426.441 20.3792 429.847 16.3292C430.252 15.8521 432.26 13.6724 432.636 12.2099C432.653 12.1563 432.686 12.1333 432.725 12.1864C433.004 12.5297 433.854 14.9303 433.854 16.414C433.852 16.5197 433.877 16.6052 433.775 16.6979C433.057 17.3579 428.645 20.4016 430.851 25.114C430.877 25.1672 430.822 25.2 430.777 25.1713ZM431.569 24.9136C431.557 24.9563 431.504 24.9693 431.483 24.9172C429.675 20.7027 433.209 18.0833 434.133 17.3396C434.785 16.8099 435.68 15.6568 436.231 14.4459C436.244 14.4183 436.281 14.3969 436.307 14.4303C436.572 14.7407 437.611 17.3656 437.044 18.8448C436.68 19.7932 432.611 19.9151 431.569 24.9136ZM429.847 25.3636C424.068 25.2 424.071 21.0088 425.235 19.0776C426.33 17.2631 427.046 15.6875 427.066 15.0588C427.072 14.9907 427.127 14.9828 427.191 15.0787C427.442 15.4568 428.041 16.8473 428.105 17.3969C428.116 17.4907 428.105 17.5713 428.072 17.6197C426.543 19.9307 426.174 23.0749 429.864 25.2765C429.918 25.3083 429.903 25.3651 429.847 25.3636ZM432.293 25.3473C432.262 25.3473 432.223 25.3224 432.233 25.2765C432.455 23.4213 433.731 21.3568 435.852 20.4469C438.227 19.4292 439.083 17.7552 439.278 17.2864C439.309 17.1953 439.375 17.2068 439.372 17.3369C439.346 19.5833 438.88 25.586 432.293 25.3473ZM433.791 27.5973H428.596V26.086H433.791V27.5973ZM431.465 38.2917C431.342 38.6682 430.796 38.5443 430.754 38.2917L429.666 28.3193H432.723L431.465 38.2917Z" fill="#516670"/>
</g>
<g clip-path="url(#clip3_356_1799)">
<path d="M606.189 27.2207C606.512 27.3768 606.762 27.4133 606.698 26.8731C606.681 26.7274 606.675 26.573 606.748 26.4331L607.073 25.6775C606.537 26.1083 605.978 26.074 605.416 25.9552C604.824 25.8302 604.322 26.0322 603.788 26.367C604.058 25.9072 604.002 25.4276 604.08 24.9726L604.178 24.9885C604.57 25.0486 604.953 25.0416 605.116 24.5748C605.282 24.0987 605.127 23.7044 604.656 23.4721L604.758 23.2003C604.79 23.1086 604.821 23.016 604.851 22.9228L605.031 22.3613C605.212 21.8009 605.411 21.2554 605.753 20.8267C607.013 19.2478 606.478 17.7949 605.736 16.1122C605.692 16.7269 605.455 17.1058 605.148 17.445L605.188 17.5262C605.283 17.7138 605.374 17.8984 605.264 18.1302C604.767 19.1739 604.089 20.1411 604.041 21.3855C603.397 20.7175 604.027 19.8357 603.474 19.2219C603.447 19.1968 603.414 19.1809 603.377 19.1743L603.349 19.5818C603.334 20.5288 603.629 21.4582 603.544 22.4169C603.493 23.0008 603.401 23.5425 603.134 24.0758C602.724 23.5064 602.724 23.5064 602.305 23.858C602.137 23.3577 602.615 23.0228 602.619 22.5714L602.688 22.4124C603.023 21.618 603.216 20.827 602.634 20.0196C602.457 19.7728 602.309 19.5924 601.983 19.782C601.673 19.962 601.697 20.2146 601.794 20.4883C601.954 20.9393 602.302 21.3239 602.261 21.8458L602.09 22.0134L602.078 22.0297L601.922 22.0165C601.316 21.9405 600.908 21.6054 600.656 20.9969C600.103 19.6654 599.714 19.4318 598.285 19.4683C598.06 19.4485 597.883 19.217 597.579 19.3213C597.886 19.6905 598.1 20.0764 598.082 20.5459C598.054 21.2825 598.381 21.8216 598.975 22.2154C599.169 22.5027 599.465 22.673 599.764 22.7887C600.477 23.0649 600.954 23.5003 601.09 24.1974C601.094 24.343 601.117 24.4923 601.133 24.6465C601.222 24.9845 601.704 25.3233 601.131 25.6595L600.789 25.388L600.448 25.1165C600.888 25.854 601.064 26.6742 601.179 27.5133C601.515 28.2003 600.802 28.5171 600.644 29.0297C600.451 28.7677 600.298 28.4846 600.185 28.1795C599.826 27.6348 599.808 27.6268 599.538 27.8794C599.546 28.084 599.632 28.2711 599.726 28.4565L599.838 28.6791C599.963 28.9401 600.048 29.2101 599.899 29.5322C599.378 29.7614 599.504 30.0919 599.76 30.4426C599.76 30.4426 599.76 30.4426 599.761 30.4439C600.145 31.5224 599.111 31.25 598.648 31.7129C598.667 30.8557 598.204 30.3882 597.723 29.9305L597.482 29.7007C597.364 29.5844 597.248 29.4648 597.144 29.3359C597.135 29.6312 597.162 29.9304 596.966 30.1306C596.288 30.8254 596.276 31.7129 596.209 32.5974C596.131 33.6319 596.042 34.6704 595.355 35.5267C595.354 35.5276 595.353 35.5285 595.354 35.5258C594.774 35.3603 594.289 35.4043 594.103 36.1079C593.724 36.4225 593.807 37.0397 593.34 37.2938C593.157 37.3887 592.961 37.4463 592.763 37.4956L592.365 37.5919C592.101 37.6604 591.844 37.7492 591.62 37.9283L591.62 37.927L591.598 37.6564C591.598 37.6558 591.598 37.6551 591.599 37.6545C592.636 36.4256 592.691 35.9991 591.935 35.08L591.683 34.941C591.261 34.7194 590.819 34.5497 590.349 34.4504L590.192 34.4071C589.354 34.1937 588.558 34.2665 587.983 35.0136C587.475 35.6723 587.866 36.2642 588.307 36.7997C588.663 36.4388 588.21 36.0829 588.299 35.6719L588.299 35.675L588.308 35.7967C588.349 36.1545 588.519 36.3639 588.836 36.4387L588.947 36.4586C589.031 36.4516 589.109 36.4283 589.183 36.3865C589.265 36.2254 589.216 36.0884 589.142 35.9559L589.024 35.7581C588.95 35.6253 588.904 35.4873 588.991 35.3247L589.022 35.2828C589.208 35.3094 589.393 35.2424 589.578 35.2292C590.453 35.1667 590.848 35.5025 590.945 36.3909C590.965 36.5678 590.912 36.7565 591.043 36.911C591.556 36.944 591.589 36.6547 591.586 36.3514L591.584 36.1999C591.584 36.15 591.585 36.1011 591.589 36.0547C591.613 35.7625 591.356 35.3771 591.884 35.2895L591.921 35.2587C591.902 35.9832 591.639 36.6658 591.564 37.3752C591.232 37.1837 590.921 37.5383 590.594 37.4593C590.374 37.4583 590.178 37.5317 589.987 37.6189L589.702 37.7524L589.557 37.8126C589.42 37.8672 589.28 37.9107 589.135 37.9349C588.773 37.9952 588.436 38.0907 588.391 38.5395C588.39 38.5501 588.286 38.6174 588.353 38.5035C588.365 38.1567 588.746 38.0058 588.808 37.6762C588.815 37.4403 588.819 37.2071 588.491 37.1957C588.296 37.7589 587.184 38.349 586.627 38.1893C586.406 38.1259 586.317 37.9829 586.443 37.7875C586.572 37.586 586.744 37.4109 586.905 37.2313C587.635 36.4177 587.485 35.3181 586.567 34.7751C585.646 34.2308 585.087 34.3254 584.063 35.1971C584.209 35.3322 584.283 35.5258 584.433 35.6556C584.682 35.7383 584.898 35.6072 585.125 35.5443C585.359 35.4791 585.61 35.4079 585.779 35.6503C585.916 35.847 585.843 36.078 585.714 36.2435C585.396 36.6518 585.379 37.2093 585.035 37.6023C584.972 37.6419 584.913 37.6854 584.857 37.7391C584.493 37.7636 584.232 37.7693 584.041 37.732L584.041 30.086L587.14 27.9102V24.0617L592.734 31.7957L590.874 25.2137L596.215 20.8887L587.218 23.869L589.291 20.9151L587.032 14.2944L587.112 23.6965L584.843 21.0101L584.041 21.019L584.041 20.074C584.041 15.5792 584.105 11.0831 584.002 6.59061C583.972 5.26683 584.27 5.00092 585.589 5.00535C602.317 5.06208 619.046 5.04258 635.774 5.04258C666.579 5.04258 697.383 5.05676 728.186 5.00002C729.7 4.99738 730.01 5.29564 730 6.81132C729.92 18.748 729.938 30.6851 729.984 42.6217C729.988 43.727 729.734 43.9765 728.629 43.9756C680.875 43.9437 633.122 43.9348 585.368 44C583.653 44.0021 584.05 43.1342 584.044 42.2717L584.043 42.2199C584.229 42.2129 584.416 42.2038 584.602 42.1962C585.297 42.1676 585.648 41.7007 585.523 41.0398C585.443 40.6222 585.624 40.4246 585.838 40.1808C585.377 39.8807 585.079 40.0972 584.841 40.5034C584.941 40.9007 584.819 41.1595 584.396 41.2228C584.277 41.2407 584.159 41.2548 584.041 41.2649L584.04 39.6865C584.249 39.6207 584.469 39.5997 584.7 39.5916C584.83 39.5617 584.914 39.4878 584.927 39.3461C584.841 38.7181 585.22 38.703 585.608 38.6925L585.774 38.6865C585.729 38.8212 585.686 38.9602 585.768 39.1019C585.862 39.1705 585.969 39.1908 586.083 39.1851L586.166 39.1859C586.339 39.2157 586.373 39.4266 586.504 39.5124C587.068 39.3708 587.675 39.5569 588.222 39.2594C588.79 38.9505 589.299 39.1015 589.753 39.5248C590.199 39.3043 590.442 39.7769 590.805 39.8398L590.84 39.8067C590.665 40.0509 590.399 40.1002 590.13 40.1439C590.15 40.3824 590.171 40.6116 590.094 40.8554C589.787 41.8288 590.037 42.1777 591.052 42.2041C591.706 42.2213 592.362 42.2446 593.015 42.2081L593.293 42.1927C593.758 42.163 594.221 42.0922 594.554 41.669C594.177 41.3386 593.79 41.6171 593.406 41.6519C592.483 41.8327 591.567 41.8265 590.659 41.6017C590.802 41.5414 590.952 41.5683 591.063 41.4437C591.045 41.4075 591.021 41.3729 590.995 41.339L590.917 41.2381C590.816 41.1033 590.746 40.9622 590.944 40.7489C591.24 40.4286 591.104 40.0779 590.892 39.7567L590.885 39.761C591.146 39.2699 591.512 39.3188 591.829 39.5657L591.896 39.6216C592.27 39.9525 592.586 39.8601 592.915 39.6233C593.085 39.5019 593.241 39.3193 593.15 39.0856C593.061 38.8555 592.86 38.9646 592.687 38.9791C592.269 39.0139 591.85 39.0297 591.431 39.0531C591.233 38.9508 591.344 38.735 591.291 38.5826C591.802 38.7146 592.204 38.2407 592.699 38.283L592.777 38.2931C592.777 38.2931 592.821 38.2315 592.821 38.2311L592.965 38.1969C593.297 38.1365 593.609 38.2175 593.907 38.3935L594.033 38.4619C594.411 38.6356 594.77 38.5231 595.122 38.3908L595.356 38.3027L595.472 38.2619C595.83 38.1435 595.875 37.8733 595.6 37.5856L595.653 37.4673C595.948 36.8888 596.518 37.1968 596.906 37.2639C597.881 37.4324 598.713 37.1821 599.555 36.7359C600.128 36.4322 600.463 35.8734 600.991 35.5364L601.203 35.5325C602.867 35.4554 603.561 34.2011 604.255 32.9492L604.429 32.6369L604.517 32.4821H603.346L603.164 32.396C602.616 32.1749 602.035 32.2756 601.451 32.3373C601.413 31.9248 601.593 31.653 601.805 31.4042L601.968 31.2201L602.116 31.2199C602.702 31.2088 603.23 31.0653 603.574 30.5011L603.856 30.2591C604.527 29.7159 605.288 29.3184 606.07 28.9711C606.653 28.712 606.912 28.3388 606.777 27.7039C606.268 27.6951 606.282 28.3393 605.87 28.451C605.764 28.5098 605.658 28.5661 605.551 28.6213L604.905 28.9485C604.584 29.1151 604.27 29.2939 603.982 29.5185C603.727 29.718 603.378 29.8942 603.462 30.2786C603.33 30.1619 603.214 30.011 603.001 30.0712L603.027 30.0667C603.227 29.7741 602.521 29.7094 602.837 29.4521C603.447 28.9553 603.7 28.3124 603.763 27.5586C603.793 27.1952 603.986 26.9408 604.281 26.7521C604.549 26.5417 604.857 26.4194 605.19 26.4665C605.25 26.475 605.317 26.4728 605.387 26.4688L605.526 26.4609C605.757 26.4525 605.969 26.49 605.963 26.9039C605.967 26.951 605.976 26.9948 605.991 27.0345L605.7 27.3342C605.477 27.7593 605.07 28.0114 604.783 28.4035L605.019 28.3498C605.292 28.2836 605.55 28.1879 605.709 27.8891C605.797 27.7657 605.886 27.6421 605.975 27.5186L606.189 27.2207ZM597.329 39.9925C596.483 39.2836 595.573 39.3452 594.615 39.6079C594.769 40.0182 595.058 40.0473 595.357 40.0329L595.557 40.0205C595.755 40.009 595.946 40.0116 596.093 40.128C595.947 40.1862 595.788 40.1635 595.625 40.1258L595.429 40.0774C595.133 40.0066 594.839 39.972 594.6 40.3569C594.804 40.4703 595.022 40.5059 595.243 40.525L595.575 40.5486L595.74 40.5654L595.984 40.5971C596.592 40.6806 597.182 40.8279 597.498 41.7566C597.56 40.9408 597.993 40.7658 598.465 40.6322L598.668 40.5757C598.838 40.5278 599.007 40.4742 599.16 40.3877C598.468 40.2944 597.811 40.3969 597.329 39.9925ZM593.749 40.1518C593.893 40.726 593.686 41.0301 593.094 41.1203C592.786 41.1669 592.495 41.3254 592.196 41.4332C592.488 41.4442 592.779 41.4552 593.07 41.4657C593.633 41.3861 593.919 40.9782 594.162 40.5188C594.16 40.4713 594.159 40.4237 594.159 40.3762C594.022 40.3014 593.885 40.2266 593.749 40.1518ZM585.988 34.9146C587.286 35.4175 587.4 36.0868 586.51 37.2366L586.443 37.3396C586.308 37.5489 586.178 37.773 585.89 37.9182C585.736 37.516 585.706 37.1636 585.91 36.827C586.364 36.6971 585.662 37.5451 586.303 37.2335C586.213 36.4807 586.865 35.6684 585.988 34.9146ZM599.457 31.852C599.819 31.7107 600.116 31.4551 600.551 31.9004C600.97 32.3299 600.87 32.6282 600.654 33.0308C600.541 33.2407 600.432 33.4533 600.305 33.6548C600.081 34.0416 599.787 34.3716 599.49 34.7029C599.308 34.9058 599.006 35.0946 599.218 35.4558C599.608 35.5993 599.821 35.3049 600.06 35.0941C600.629 34.5934 601.011 33.9452 601.401 33.3054C601.601 32.9868 601.913 32.9076 602.258 32.8865C602.302 32.8837 602.347 32.8823 602.392 32.8815L602.662 32.8794C602.887 32.8748 603.109 32.8515 603.314 32.7206C603.33 32.7044 603.343 32.6878 603.352 32.6714C603.524 33.6016 603.039 34.3847 602.124 34.6541C601.708 34.853 601.073 34.7148 600.989 35.4184L600.995 35.38L600.969 35.3519L600.931 35.3256C600.492 35.3095 600.179 35.5326 599.879 35.7805L599.623 35.9941C599.451 36.1338 599.272 36.2617 599.066 36.3376C598.574 36.5572 598.05 36.6285 597.51 36.6927C598.057 36.5546 598.503 36.2523 598.943 35.9407C599.095 35.785 599.301 35.6538 599.177 35.3793C598.67 35.1587 598.336 35.5257 597.956 35.7326L597.889 35.765L597.936 35.7412C597.987 35.4122 598.106 35.1123 598.25 34.823L598.362 34.6077L598.599 34.1822C598.677 34.0404 598.754 33.8977 598.824 33.752L598.638 33.5637L598.194 34.3419L597.965 34.7267C597.939 34.7693 597.919 34.8193 597.899 34.8712L597.841 35.0272C597.789 35.153 597.717 35.2568 597.56 35.2539C597.32 35.2493 597.142 35.1273 597.059 34.9191L597.158 34.7095L597.562 33.9661C597.928 33.3091 598.33 32.6789 598.951 32.2097C599.107 32.0724 599.264 31.9272 599.457 31.852ZM625.557 30.7045L624.902 32.7525L622.933 32.7635L624.474 34.0373L623.914 36.0227L625.594 34.834L627.23 35.986L626.677 34.0102L628.242 32.7313H626.222L625.557 30.7045ZM702.539 30.7045L701.884 32.7525L699.915 32.7635L701.456 34.0373L700.896 36.0227L702.575 34.834L704.212 35.986L703.659 34.0102L705.224 32.7313H703.204L702.539 30.7045ZM688.425 31.5909C688.073 31.5909 687.762 31.6441 687.493 31.752C687.223 31.8596 687.015 32.0093 686.868 32.2021C686.721 32.3952 686.648 32.6176 686.648 32.8688C686.648 33.1208 686.717 33.3261 686.855 33.4868C686.993 33.6467 687.182 33.7746 687.423 33.8699C687.663 33.9653 687.972 34.0493 688.351 34.1223C688.747 34.2039 689.037 34.292 689.22 34.3869C689.402 34.4827 689.493 34.6239 689.493 34.8102C689.493 35.0334 689.396 35.2054 689.2 35.3276C689.004 35.4493 688.728 35.5098 688.371 35.5098C688.059 35.5098 687.779 35.4716 687.53 35.3945C687.343 35.3367 687.161 35.2526 686.983 35.1423L686.808 35.0232L686.56 35.4858C686.783 35.6644 687.047 35.7983 687.352 35.8876C687.657 35.9765 687.994 36.0215 688.365 36.0227C688.734 36.0227 689.056 35.9708 689.33 35.8673C689.604 35.7638 689.815 35.6189 689.962 35.4323C690.108 35.2456 690.182 35.0265 690.182 34.7749C690.182 34.5314 690.108 34.3325 689.962 34.1783C689.815 34.0245 689.619 33.9024 689.374 33.8131C689.129 33.7238 688.808 33.6386 688.412 33.5575C688.033 33.4767 687.758 33.385 687.586 33.2835C687.415 33.1821 687.329 33.0336 687.329 32.8392C687.329 32.6119 687.427 32.4321 687.623 32.3003C687.819 32.1688 688.088 32.1026 688.431 32.1026C688.694 32.1026 688.941 32.1424 689.173 32.2211C689.347 32.2805 689.517 32.3645 689.683 32.473L689.848 32.5896L690.095 32.1266C689.899 31.9561 689.655 31.8243 689.363 31.7309C689.072 31.6372 688.759 31.5909 688.425 31.5909ZM654.731 31.6388H651.645V35.9728H654.731V35.4615H652.326V34.0249H654.598V33.5132H652.326V32.1501H654.731V31.6388ZM663.223 31.6388H662.414L664.145 33.7571L662.334 35.9728H663.15L664.539 34.2319L665.928 35.9728H666.744L664.933 33.7628L666.677 31.6388H665.862L664.545 33.2945L663.223 31.6388ZM676.766 31.6388H676.185L674.067 35.9728H674.768L675.276 34.9011H677.681L678.189 35.9728H678.891L676.766 31.6388ZM643.661 31.6388H639.745V32.1619H641.356V35.9728H642.05V32.1619H643.661V31.6388ZM597.282 30.129L597.369 30.3067C597.606 30.8346 597.641 31.3029 597.443 31.7755L597.376 31.9189L597.367 32.2057C597.293 33.5306 596.762 34.6673 595.862 35.6653C596.33 34.9529 596.404 34.1676 596.446 33.378L596.474 32.8518C596.5 32.414 596.54 31.9795 596.658 31.5603L596.655 31.3944C596.689 30.917 597.076 30.6094 597.282 30.129ZM676.479 32.3384L677.447 34.4019H675.51L676.479 32.3384ZM597.858 30.5997C598.455 31.2135 598.452 31.8533 597.76 32.6216C597.739 31.8626 597.657 31.2386 597.858 30.5997ZM605.824 17.4296C606.302 18.1509 606.431 18.7645 606.046 19.4536C605.947 19.6655 605.832 19.8694 605.715 20.0722L605.482 20.4776C605.174 21.0203 604.902 21.5804 604.882 22.2633L604.865 22.3581C604.784 22.6097 604.436 22.8531 604.234 23.1007L604.184 23.1084L604.158 23.114L604.084 23.1293L604.057 23.2743C603.956 23.6519 603.64 23.965 603.716 24.3953C603.699 24.6252 603.589 24.7625 603.348 24.7653C603.495 25.0235 603.738 25.2448 603.714 25.5671L603.693 25.6929L603.585 25.8642C603.243 26.4396 603.07 27.0587 603.166 27.7492C603.264 28.4554 602.736 28.7498 602.313 29.1683C602.242 29.0513 602.264 28.9545 602.307 28.8636L602.377 28.7299C602.433 28.6192 602.464 28.5065 602.329 28.3639C601.972 28.5469 601.912 29.1727 601.383 29.1379C601.704 28.4532 601.715 27.7835 601.374 27.0883C601.158 26.6469 601.317 26.155 601.329 25.6854C601.908 25.5042 601.93 24.7029 602.566 24.5387C602.723 25.126 602.326 25.6783 602.469 26.2846L602.528 26.465L602.628 26.1338C602.66 26.0255 602.691 25.9199 602.721 25.8157L602.813 25.5059C602.852 25.4405 602.865 25.3556 602.873 25.2667L602.883 25.1322C602.9 24.9094 602.947 24.709 603.344 24.7702C603.523 24.0327 603.701 23.2948 603.88 22.5568C604.527 21.4783 604.456 20.1332 605.147 19.0714C605.35 18.5768 605.555 18.0822 605.824 17.4296ZM584.041 22.949L587.011 23.9148L584.041 28.174V22.949ZM598.233 24.4349C598.46 24.8426 598.466 25.2487 598.441 25.6509L598.417 25.9947C598.409 26.1089 598.403 26.2228 598.404 26.3362C598.407 26.9048 598.461 27.4447 599.174 27.5564C598.789 26.9536 598.337 26.3574 598.967 25.6511C599.532 25.8271 599.46 26.4903 599.871 26.885C599.993 25.9833 599.273 25.6102 598.908 25.0522C599.269 24.8718 599.651 25.0989 599.909 24.797C599.402 24.5004 598.781 24.7939 598.233 24.4349ZM687.302 16.6324H685.034V21.6347C685.034 22.8649 685.364 23.798 686.025 24.4333C686.686 25.0681 687.661 25.3859 688.95 25.3864C690.214 25.3864 691.183 25.0642 691.856 24.4211C692.482 23.8236 692.817 22.9801 692.861 21.8905L692.866 21.6347V16.6324H690.573V21.7197C690.573 22.335 690.433 22.8107 690.152 23.1463C689.871 23.4823 689.471 23.6502 688.95 23.6502C688.421 23.6502 688.015 23.4845 687.729 23.1524C687.476 22.8575 687.335 22.4475 687.307 21.9221L687.302 21.7197V16.6324ZM679.296 16.5232C678.395 16.5232 677.612 16.7031 676.947 17.0635C676.282 17.4238 675.768 17.9359 675.404 18.5993C675.041 19.2632 674.859 20.0442 674.859 20.9426C674.859 21.8411 675.039 22.6264 675.398 23.2981C675.758 23.9697 676.272 24.4857 676.941 24.8456C677.61 25.206 678.395 25.3859 679.296 25.3859C680.196 25.3859 680.979 25.206 681.644 24.8456C682.309 24.4857 682.819 23.9702 683.175 23.2981C683.53 22.6264 683.708 21.8411 683.708 20.9426C683.708 20.0442 683.53 19.2632 683.175 18.5993C682.819 17.9359 682.309 17.4234 681.644 17.0635C680.979 16.7036 680.196 16.5232 679.296 16.5232ZM647.942 16.5232C647.041 16.5232 646.258 16.7031 645.594 17.0635C644.928 17.4238 644.414 17.9359 644.051 18.5993C643.687 19.2632 643.505 20.0442 643.505 20.9426C643.505 21.8411 643.685 22.6264 644.044 23.2981C644.404 23.9697 644.918 24.4857 645.587 24.8456C646.257 25.206 647.041 25.3859 647.942 25.3859C648.843 25.3859 649.626 25.206 650.29 24.8456C650.955 24.4857 651.466 23.9702 651.821 23.2981C652.176 22.6264 652.354 21.8411 652.354 20.9426C652.354 20.0442 652.176 19.2632 651.821 18.5993C651.466 17.9359 650.956 17.4234 650.29 17.0635C649.625 16.7036 648.842 16.5232 647.942 16.5232ZM671.092 16.5227C670.175 16.5227 669.375 16.707 668.693 17.0752C668.012 17.4437 667.487 17.9615 667.119 18.6293C666.751 19.297 666.568 20.068 666.568 20.9422C666.568 21.8246 666.751 22.6017 667.119 23.2733C667.487 23.9454 668.012 24.4649 668.693 24.8335C669.375 25.2021 670.175 25.3859 671.092 25.3859C671.67 25.3859 672.229 25.3014 672.771 25.131C673.234 24.9853 673.621 24.795 673.93 24.5601L674.078 24.4389L673.371 22.8241C672.653 23.334 671.909 23.589 671.141 23.589C670.43 23.589 669.885 23.3666 669.505 22.9212C669.125 22.4763 668.935 21.8164 668.935 20.9422C668.935 20.0763 669.125 19.4228 669.505 18.9814C669.885 18.5404 670.43 18.3197 671.141 18.3197C671.832 18.3197 672.504 18.5262 673.155 18.9392L673.371 19.0846L674.078 17.4698C673.748 17.1784 673.312 16.9477 672.771 16.7777C672.229 16.6077 671.67 16.5227 671.092 16.5227ZM628.522 16.632H626.824V25.2767H628.993V20.3716L632.996 25.2767H634.719V16.632H632.525V21.5128L628.522 16.632ZM696.088 16.632H694.39V25.2767H696.559V20.3716L700.562 25.2767H702.285V16.632H700.091V21.5128L696.088 16.632ZM713.116 16.632H703.239V18.4775H705.866V25.2767H708.22V18.4775H710.848L710.848 17.1497L714.193 21.9621V25.2767H716.536V21.9742L720.266 16.632H717.614L715.346 20.0802L713.116 16.632ZM643.282 16.632H635.673V18.4775H638.3V25.2767H640.655V18.4775H643.282V16.632ZM655.415 16.632H653.717V25.2767H655.885V20.3716L659.888 25.2767H661.611V16.632H659.417V21.5128L655.415 16.632ZM613.267 16.632H609.661V25.2762H613.267C614.25 25.2762 615.095 25.1045 615.801 24.7607C616.508 24.4164 617.047 23.9186 617.419 23.2673C617.79 22.616 617.976 21.8407 617.976 20.9422C617.976 20.052 617.788 19.2832 617.412 18.6353C617.036 17.9879 616.495 17.4923 615.789 17.148C615.082 16.8042 614.242 16.632 613.267 16.632ZM625.635 16.632H619.339V25.2767H625.635V23.5283H621.607V21.7557H625.374V20.0073H621.607V18.3804H625.635V16.632ZM679.296 18.259C679.957 18.259 680.475 18.4879 680.851 18.9449C681.227 19.4024 681.415 20.068 681.415 20.9422C681.415 21.8246 681.227 22.4963 680.851 22.9577C680.475 23.419 679.957 23.6497 679.296 23.6497C678.634 23.6497 678.118 23.4212 677.747 22.9637C677.375 22.5067 677.189 21.8329 677.189 20.9422C677.189 20.0602 677.375 19.3924 677.747 18.9389C678.118 18.4857 678.634 18.259 679.296 18.259ZM647.942 18.259C648.603 18.259 649.121 18.4879 649.497 18.9449C649.873 19.4024 650.061 20.068 650.061 20.9422C650.061 21.8246 649.873 22.4963 649.497 22.9577C649.121 23.419 648.603 23.6497 647.942 23.6497C647.281 23.6497 646.765 23.4212 646.393 22.9637C646.021 22.5067 645.835 21.8329 645.835 20.9422C645.835 20.0602 646.021 19.3924 646.393 18.9389C646.765 18.4857 647.281 18.259 647.942 18.259ZM613.106 18.4532C614.816 18.4532 615.671 19.2832 615.671 20.9422C615.671 21.7843 615.458 22.4135 615.033 22.8302C614.646 23.2094 614.08 23.4159 613.335 23.4503L613.106 23.4555H611.99V18.4532H613.106ZM598.805 21.6609C599.4 20.3371 599.656 21.5783 600.045 21.813L600.086 21.8334L600.093 21.9633C600.165 22.4013 600.767 22.4278 600.901 22.9014C600.214 22.8693 599.744 22.4143 599.184 22.2017C599.058 22.0213 598.932 21.8409 598.805 21.6609ZM599.713 20.3549C599.932 20.2361 600.052 20.3637 600.145 20.5268L600.211 20.6525C600.232 20.6944 600.253 20.7352 600.274 20.7716C600.531 21.2121 600.693 21.7098 601.126 22.0772L601.012 22.1209C600.647 22.2264 600.428 21.9508 600.167 21.8556L600.088 21.8334L599.924 21.415L599.767 20.993C599.694 20.7822 599.42 20.5129 599.713 20.3549ZM593.376 6.36337C593.422 7.07798 593.957 7.25223 594.242 7.61965C594.359 7.76926 594.639 7.90391 594.415 8.14064C594.216 8.3501 594.01 8.18509 593.874 8.02756C592.829 6.81924 591.558 6.31981 589.951 6.76468C590.438 6.89801 590.606 7.35827 590.922 7.66981C591.012 7.7587 591.124 7.84266 591.242 7.92404L591.48 8.08404C591.755 8.2683 592.002 8.44698 592.015 8.64976C592.041 9.04446 591.476 9.47921 591.167 9.89636C591.178 9.98436 591.189 10.0728 591.199 10.1613C592.463 9.0779 593.435 10.277 594.5 10.4992C594.977 10.5986 595.672 10.3465 596.079 10.8794C596.151 10.9922 596.235 11.0719 596.331 11.1199C595.591 11.1045 594.843 11.0442 594.103 11.1764C593.853 11.1892 593.603 11.2015 593.353 11.2142C594.036 11.4532 594.046 12.4366 594.813 12.5207C595.131 12.2355 594.227 12.1229 594.709 11.8501C594.986 11.693 595.209 11.9614 595.431 12.0983L595.606 12.2094C595.896 12.394 596.187 12.5505 596.544 12.3011C596.01 12.1304 595.617 11.7704 595.088 11.4827C596.07 11.1839 596.756 11.5275 597.368 12.1225L597.278 12.0374C597.262 12.0834 597.25 12.1322 597.246 12.1836C597.154 12.5902 596.823 12.3926 596.593 12.4498C596.549 12.4606 596.503 12.4659 596.456 12.4692L596.312 12.4773C596.122 12.4902 595.947 12.531 595.917 12.8322C596.618 13.102 597.41 12.8564 598.095 13.2221L598.151 13.3197C598.254 13.4709 598.397 13.5715 598.584 13.6155L598.716 13.7041C598.915 13.8367 599.1 13.9801 598.995 14.2922C598.906 14.5578 598.774 14.5326 598.636 14.4705L598.531 14.421C598.462 14.3886 598.393 14.3628 598.329 14.3754C598.068 14.4273 597.795 14.4141 597.529 14.4414C596.862 14.5096 596.225 14.914 595.515 14.595C595.544 14.6308 595.574 14.667 595.603 14.7034L595.777 14.9225C596.357 15.6528 596.937 16.3498 598.071 15.9916L598.045 15.9011C597.936 15.6151 597.645 15.8298 597.461 15.7919C597.188 15.7355 596.94 15.681 596.694 15.4235C597.196 15.0552 597.759 15.3536 598.279 15.1846C598.049 14.8262 597.776 14.8519 597.495 14.9248L597.307 14.9767C597.15 15.0195 596.993 15.0538 596.843 15.0218C598.774 14.1263 599.602 14.9364 601.104 16.88C600.851 17.3336 600.436 16.7824 600.146 16.9825L600.081 17.0424C600.188 17.1177 600.273 17.2532 600.186 17.3403C599.605 17.9238 599.945 18.348 600.404 18.7559C600.536 18.8734 600.669 18.989 600.803 19.1041L601.205 19.4474L601.29 19.3395C601.446 19.0738 601.33 18.7337 601.481 18.4492C601.738 17.9656 601.996 17.7667 602.455 18.1878L602.476 18.1993C602.532 18.1651 602.585 18.1262 602.612 18.1667C602.643 18.2121 602.62 18.2639 602.595 18.3172C602.598 18.3242 602.602 18.3313 602.604 18.3387C602.768 18.5134 602.799 18.8342 603.083 18.8757L603.188 18.8791C603.251 18.4848 603.313 18.0906 603.376 17.6963L603.451 17.6229C603.816 17.2555 603.954 16.8827 603.404 16.4928C603.403 16.493 603.401 16.4931 603.404 16.4902C603.193 16.3348 603.16 16.1364 603.15 15.8689C603.123 15.0944 603.401 14.3736 603.477 13.6313C603.652 11.9398 602.799 10.7342 601.42 9.9012C601.574 10.9586 601.348 12.0507 600.793 12.8146C600.455 12.3992 601.176 11.8809 600.663 11.508C600.641 11.3537 600.555 11.2502 600.413 11.1936L600.31 11.2759C600.057 11.503 599.989 11.7991 600.064 12.148C600.103 12.2703 600.257 12.4767 599.989 12.4538C599.622 12.4226 599.418 12.148 599.371 11.7806C599.327 11.4351 599.196 11.1408 598.931 10.9159C597.934 10.0693 597.831 9.58438 598.376 8.22073C599.398 8.83325 598.064 9.71198 598.69 10.5076C598.822 9.57382 599.368 8.81873 598.67 7.96331C598.522 7.78162 598.639 7.75706 598.781 7.74536L598.888 7.73674C598.94 7.73138 598.987 7.72275 599.015 7.70518C599.572 8.10554 599.607 8.62118 599.454 9.26668C599.337 9.76259 599.112 10.3337 599.582 10.8077C599.518 10.1692 599.618 9.56061 599.822 8.9503C600.093 8.13844 599.875 7.83923 599.001 7.69534L599.012 7.69618C598.686 7.33247 598.191 7.30206 597.631 6.8716C597.89 7.39216 597.935 7.71954 597.939 8.0522C597.952 8.96658 597.836 9.0361 596.96 8.64096C596.8 8.46379 596.688 8.24919 596.583 8.02905L596.426 7.69861C596.264 7.37182 596.073 7.06769 595.721 6.89151L595.56 6.82437C594.887 6.38361 594.065 6.98997 593.376 6.36337ZM599.99 12.9893C600.141 12.7957 600.369 12.8489 600.566 12.9488C600.644 12.9884 600.737 13.0465 600.772 13.1209C601.271 14.1752 601.912 15.182 601.894 16.4163C601.888 16.7995 601.74 16.9632 601.419 16.6481C600.817 16.055 600.21 15.4632 599.651 14.8286C599.291 14.4198 599.307 13.8958 599.447 13.2775C599.948 13.7506 600.4 14.1765 600.851 14.602C600.789 14.0837 600.361 13.8403 600.088 13.4835C599.972 13.3308 599.864 13.1504 599.99 12.9893ZM601.868 10.9489C602.474 11.7383 602.462 12.5889 602.391 13.4417L602.353 13.868C602.335 14.081 602.318 14.2934 602.313 14.5045L602.31 14.712L602.408 14.4382C602.695 13.5224 602.648 12.5827 602.563 11.57L602.534 11.2296C603.451 12.4653 603.201 13.6744 602.918 14.9066L602.829 15.2966C602.785 15.492 602.743 15.6881 602.708 15.8851C601.399 14.852 601.122 13.1407 601.868 10.9489ZM598.514 11.7613L598.592 11.7679C598.742 11.7902 598.862 11.8691 598.93 12.0463C598.898 12.3548 598.634 12.2628 598.458 12.3196C598.267 12.3808 598.098 12.394 598.111 12.1115C598.121 11.9073 598.216 11.7766 598.432 11.763L598.514 11.7613ZM596.132 9.61122C596.409 9.24863 596.72 9.41497 596.99 9.389C597.178 9.68689 597.367 9.98477 597.555 10.2822L597.672 10.3461C597.821 10.441 597.938 10.5672 598.028 10.7204L598.086 10.8324L598.098 10.8327C597.679 10.7887 597.792 11.3572 597.445 11.4018C597.449 11.5853 597.637 11.8156 597.396 11.934L597.383 11.9374L597.389 11.8769C597.351 11.4091 597.08 11.2299 596.761 11.1613L596.8 11.1553C596.846 11.1342 596.884 11.1122 596.913 11.0882C596.882 11.0699 596.851 11.0516 596.82 11.0334C596.59 10.5951 595.998 10.688 595.745 10.2836C596.098 9.57514 596.459 10.3219 596.816 10.277C597.061 10.2463 597.303 10.9004 597.558 10.2862C597.024 10.1973 596.605 9.89064 596.132 9.61122ZM598.091 10.8398C598.347 10.8345 598.537 10.9775 598.745 11.1139C598.651 11.4756 598.265 11.5399 598.126 11.4747C597.937 11.3856 598.118 11.1239 598.111 10.9099L598.098 10.8404L598.091 10.8398ZM594.575 8.46885L594.664 8.47077C594.924 8.50647 595.129 8.79881 595.315 9.01014C595.071 9.32652 594.834 8.9679 594.615 9.08846L594.624 9.19844C594.626 9.21588 594.63 9.2325 594.637 9.24775C594.657 9.2932 594.694 9.33605 594.736 9.37813L594.821 9.46184C594.949 9.58752 595.05 9.71748 594.811 9.90164C594.379 10.2352 593.625 10.2215 593.522 9.84091C593.309 9.05194 592.746 9.2636 592.26 9.03786C592.997 8.80025 593.757 8.7294 594.482 8.48871L594.575 8.46885ZM595.558 6.99041C595.854 7.42296 596.258 7.7961 596.37 8.50587C596.015 8.22601 595.768 8.03108 595.476 7.80138C595.376 8.4007 596.258 8.4381 596.1 9.00706C595.516 8.88385 595.203 8.42138 594.9 7.97475C594.835 7.87927 594.41 7.60029 595.002 7.42824C595.265 7.35211 594.637 7.29447 594.672 6.99085L595.558 6.99041ZM591.769 7.03689L591.944 7.04086C592.783 7.10784 593.116 7.86081 593.785 8.35274C592.372 8.52655 592.012 8.3897 591.026 7.30371C591.202 7.38354 591.364 7.45698 591.516 7.52586L591.946 7.7206C592.149 7.81295 592.339 7.89913 592.529 7.98531C592.552 7.94659 592.575 7.90787 592.599 7.86871C592.289 7.62141 591.981 7.37412 591.579 7.05289L591.769 7.03689Z" fill="#516670"/>
</g>
<g clip-path="url(#clip4_356_1799)">
<mask id="mask0_356_1799" style="mask-type:luminance" maskUnits="userSpaceOnUse" x="794" y="8" width="66" height="33">
<path d="M794 8.5H860V40.5H794V8.5Z" fill="white"/>
</mask>
<g mask="url(#mask0_356_1799)">
<path fill-rule="evenodd" clip-rule="evenodd" d="M827.301 22.2844L820.341 22.2828L827.359 17.9555L827.301 22.2844ZM854.879 23.774C854.596 22.935 854.042 22.2857 853.34 22.2857H840.223V18.7717H854.978V13.5H834.815L834.816 22.2822H832.591L832.6 13.5241H826.03L811.713 22.2857H804.41V18.7717H812.7L821.433 13.5H799V34.3549H804.41V27.5568H811.713V27.56H827.359V35.4984H832.648V27.56H836.272L836.273 27.5568L848.182 27.5619C848.191 27.5619 848.198 27.5606 848.207 27.5606C848.949 27.5606 849.551 28.1583 849.551 28.8944C849.551 29.6312 848.949 30.2289 848.207 30.2289C848.198 30.2289 848.191 30.2276 848.182 30.2273L834.816 30.2289V35.5H853.384C854.112 35.5 854.848 34.5644 854.922 34.0224C854.997 33.4804 855.068 24.3354 854.879 23.774Z" fill="#516670"/>
</g>
<mask id="mask1_356_1799" style="mask-type:luminance" maskUnits="userSpaceOnUse" x="794" y="8" width="66" height="33">
<path d="M794 8.5H860V40.5H794V8.5Z" fill="white"/>
</mask>
<g mask="url(#mask1_356_1799)">
<path fill-rule="evenodd" clip-rule="evenodd" d="M857.164 26.7881C857.164 29.1842 857.089 33.6012 857.081 33.9813C857.073 34.3613 856.942 34.7207 856.942 34.7207C856.357 36.3313 855.132 37.6675 853.298 37.6675H824.845V29.7887H809.394V29.7868H806.701V36.5315H796.838V11.3287H857.137V21.0676H855.7C856.251 21.6046 856.665 22.3087 856.92 23.064C857.218 23.9632 857.164 25.8278 857.164 26.7881ZM859.933 23.897H859.968V8.5H794V39.3608H809.539V32.6183H822.005V40.4946H829.705V40.5H853.298C856.344 40.5 858.608 38.4371 859.609 35.6823C859.609 35.6823 859.901 34.89 859.915 34.029C859.928 33.1677 859.997 29.1998 859.997 26.7881C859.997 25.8313 860.02 24.8551 859.933 23.897Z" fill="#516670"/>
</g>
</g>
<g clip-path="url(#clip5_356_1799)">
<path d="M1012.93 0.5C1032.3 0.5 1048 11.2448 1048 24.4998C1048 37.7548 1032.3 48.5 1012.93 48.5C1002.11 48.5 992.433 45.1459 986 39.8739C979.568 45.1459 969.891 48.5 959.07 48.5C939.701 48.5 924 37.7548 924 24.4998C924 11.2448 939.701 0.5 959.07 0.5C969.891 0.5 979.568 3.85402 986.001 9.12593C992.433 3.85397 1002.11 0.5 1012.93 0.5ZM952.571 19.0824C951.235 19.0824 950.151 19.6319 949.358 20.4178V19.2788H946.958V32.9323H949.358V28.7827C950.113 29.4506 951.12 29.9217 952.397 29.9217C955.049 29.9217 957.313 28.0562 957.313 24.5023C957.313 20.9479 955.165 19.0824 952.571 19.0824ZM940.796 16.021C939.493 16.021 938.306 16.3602 937.454 16.9765C936.519 17.653 936.025 18.6229 936.025 19.7813C936.025 22.0708 937.904 23.0477 939.479 23.4639C941.585 24.0373 943.075 24.546 943.075 25.8731C943.075 26.9902 942.1 27.6845 940.53 27.6845C938.956 27.6845 937.355 26.9977 936.136 25.8009L936.105 25.7712L935.855 28.6086L935.853 28.6206L935.864 28.6272L936.118 28.7938C937.326 29.5462 938.811 29.9419 940.435 29.9419C941.904 29.9419 943.162 29.5776 944.072 28.8871C945.05 28.1457 945.567 27.0571 945.567 25.7382C945.567 23.7234 944.343 22.4309 941.827 21.7858C939.744 21.2144 938.479 20.7895 938.479 19.7041C938.479 18.8032 939.366 18.2211 940.739 18.2211C942.11 18.2211 943.496 18.7466 944.64 19.7008L944.672 19.7264L944.807 17.0639L944.807 17.0511L944.796 17.045L944.59 16.9322C943.557 16.3807 942.485 16.021 940.796 16.021ZM1014.66 19.0824C1011.75 19.0824 1009.32 21.2816 1009.32 24.5415C1009.32 28.0562 1011.73 29.9217 1014.68 29.9217C1016.26 29.9217 1017.5 29.5096 1018.47 28.9597L1018.33 26.819C1017.23 27.4675 1016.24 27.8009 1014.85 27.8009C1013.23 27.8009 1012.04 26.9176 1011.77 25.2873H1019.03C1019.19 24.6986 1019.24 24.1685 1019.24 23.6186C1019.24 20.9281 1017.68 19.0824 1014.66 19.0824ZM963.934 19.0824C961.031 19.0824 958.592 21.2816 958.592 24.5415C958.592 28.0562 961.011 29.9217 963.954 29.9217C965.54 29.9217 966.779 29.5096 967.747 28.9597L967.612 26.819C966.509 27.4675 965.521 27.8009 964.128 27.8009C962.502 27.8009 961.321 26.9176 961.05 25.2873H968.308C968.463 24.6986 968.521 24.1685 968.521 23.6186C968.521 20.9281 966.953 19.0824 963.934 19.0824ZM983.854 19.0824C981.724 19.0824 979.943 20.1035 979.943 22.2045C979.943 25.6994 985.479 24.6986 985.479 26.6425C985.479 27.3689 984.783 27.8009 983.776 27.8009C982.363 27.8009 981.008 27.3104 980.04 26.4659L979.788 28.8223C980.757 29.4898 982.092 29.9217 983.737 29.9217C985.963 29.9217 987.88 28.7827 987.88 26.5637C987.88 22.9705 982.324 23.756 982.324 22.1261C982.324 21.4582 983.021 21.1245 983.873 21.1245C984.976 21.1245 986.215 21.478 987.241 22.1847L987.357 20.0053C986.486 19.4554 985.344 19.0824 983.854 19.0824ZM993.706 19.0824C992.139 19.0824 990.706 19.5144 989.932 20.0445L990.029 22.1653C990.919 21.4388 992.177 21.0263 993.281 21.0263C994.752 21.0263 995.933 21.7334 995.933 23.3241V23.638C994.907 23.3241 994.036 23.1669 993.126 23.1669C990.726 23.1669 989.119 24.4433 989.119 26.5439C989.119 28.5079 990.532 29.9217 992.835 29.9217C994.074 29.9217 995.138 29.4308 995.933 28.6651V29.7253H998.313V23.2453C998.313 20.339 996.377 19.0824 993.706 19.0824ZM1032.81 19.0824C1030.68 19.0824 1028.9 20.1035 1028.9 22.2045C1028.9 25.6994 1034.44 24.6986 1034.44 26.6425C1034.44 27.3689 1033.74 27.8009 1032.73 27.8009C1031.32 27.8009 1029.97 27.3104 1029 26.4659L1028.75 28.8223C1029.71 29.4898 1031.05 29.9217 1032.69 29.9217C1034.92 29.9217 1036.84 28.7827 1036.84 26.5637C1036.84 22.9705 1031.28 23.756 1031.28 22.1261C1031.28 21.4582 1031.98 21.1245 1032.83 21.1245C1033.93 21.1245 1035.17 21.478 1036.2 22.1847L1036.31 20.0053C1035.44 19.4554 1034.3 19.0824 1032.81 19.0824ZM975.123 19.082C972.181 19.082 969.8 21.1051 969.8 24.5023C969.8 27.8995 972.181 29.9217 975.123 29.9217C976.603 29.9217 977.636 29.5058 978.478 28.9712C978.287 28.2786 978.134 27.5773 978.032 26.8652C977.203 27.4712 976.361 27.8009 975.374 27.8009C973.71 27.8009 972.258 26.6231 972.258 24.5023C972.258 22.3814 973.71 21.2033 975.374 21.2033C976.361 21.2033 977.204 21.5329 978.033 22.1249C978.138 21.3947 978.296 20.6756 978.494 19.9665C977.636 19.4562 976.595 19.082 975.123 19.082ZM1026.29 19.0824C1024.94 19.0824 1023.95 19.7301 1023.27 20.6925V19.2788H1020.87V29.7253H1023.27V23.0291C1023.97 21.8905 1024.94 21.3406 1026 21.3406C1026.6 21.3406 1027.14 21.4582 1027.73 21.7726L1028.06 19.5342C1027.51 19.2392 1026.95 19.0824 1026.29 19.0824ZM1001.14 19.2788H998.527L1003.42 29.7253H1004.75L1009.64 19.2788H1007.03L1004.09 25.8764L1001.14 19.2788ZM993.396 24.8752C994.249 24.8752 995.061 25.0522 995.933 25.3269V26.8978C995.1 27.6833 994.307 28.0372 993.3 28.0372C992.236 28.0372 991.423 27.4279 991.423 26.4659C991.423 25.5233 992.158 24.8752 993.396 24.8752ZM952.029 21.2033C953.713 21.2033 954.894 22.5188 954.894 24.5023C954.894 26.4853 953.713 27.8009 952.049 27.8009C951.003 27.8009 950.055 27.3496 949.358 26.4461V22.6954C950.055 21.655 951.022 21.2033 952.029 21.2033ZM1014.72 21.0655C1016.19 21.0655 1016.98 22.0473 1016.98 23.3241C1016.98 23.4416 1016.96 23.52 1016.94 23.6186H1011.81C1012.12 22.0279 1013.32 21.0655 1014.72 21.0655ZM963.992 21.0655C965.463 21.0655 966.257 22.0473 966.257 23.3241C966.257 23.4416 966.237 23.52 966.218 23.6186H961.089C961.398 22.0279 962.598 21.0655 963.992 21.0655Z" fill="#516670"/>
</g>
<defs>
<clipPath id="clip0_356_1799">
<rect width="167" height="34" fill="white" transform="translate(0 7.5)"/>
</clipPath>
<clipPath id="clip1_356_1799">
<rect width="119" height="33" fill="white" transform="translate(231 8)"/>
</clipPath>
<clipPath id="clip2_356_1799">
<rect width="106" height="36" fill="white" transform="translate(414 6.5)"/>
</clipPath>
<clipPath id="clip3_356_1799">
<rect width="146" height="39" fill="white" transform="translate(584 5)"/>
</clipPath>
<clipPath id="clip4_356_1799">
<rect width="66" height="32" fill="white" transform="translate(794 8.5)"/>
</clipPath>
<clipPath id="clip5_356_1799">
<rect width="124" height="48" fill="white" transform="translate(924 0.5)"/>
</clipPath>
</defs>
</svg>
