<svg width="16" height="16" viewBox="0 0 16 16" fill="none" xmlns="http://www.w3.org/2000/svg">
<path d="M8.00879 0.457031C3.87929 0.457031 0.51761 3.81581 0.51611 7.94531C0.51536 9.2653 0.8611 10.554 1.5166 11.6895L0.5 15.457L4.42432 14.5298C5.51857 15.1268 6.75039 15.4402 8.0044 15.4409H8.00732C12.1361 15.4409 15.4963 12.0814 15.4985 7.95264C15.5 5.95089 14.7216 4.06883 13.3071 2.65283C11.8926 1.23758 10.0128 0.457781 8.00879 0.457031ZM8.00732 1.95703C9.6093 1.95778 11.1148 2.58238 12.2466 3.71338C13.3783 4.84588 14 6.35067 13.9985 7.95117C13.997 11.2542 11.3104 13.9409 8.00586 13.9409C7.00611 13.9402 6.01581 13.6891 5.14356 13.2129L4.63818 12.9375L4.08008 13.0693L2.60352 13.418L2.96387 12.0791L3.12647 11.4785L2.81592 10.9395C2.29242 10.0335 2.01536 8.9976 2.01611 7.94531C2.01761 4.64381 4.70507 1.95703 8.00732 1.95703ZM5.35742 4.48828C5.23217 4.48828 5.02966 4.53516 4.85791 4.72266C4.68616 4.90941 4.20166 5.36171 4.20166 6.28271C4.20166 7.20371 4.87256 8.094 4.96631 8.2192C5.05931 8.3437 6.26131 10.2935 8.16406 11.0435C9.7451 11.6667 10.0662 11.5437 10.4097 11.5122C10.7532 11.4815 11.5178 11.0603 11.6738 10.623C11.8298 10.1858 11.8302 9.8097 11.7837 9.7324C11.7372 9.6544 11.6123 9.6079 11.4248 9.5142C11.2381 9.4204 10.3177 8.9685 10.146 8.9062C9.9742 8.844 9.8486 8.8125 9.7241 9C9.5996 9.1875 9.2418 9.6079 9.1323 9.7324C9.0228 9.8577 8.91406 9.8745 8.72656 9.7808C8.53906 9.6863 7.9362 9.4881 7.2207 8.8506C6.6642 8.3548 6.2887 7.74316 6.1792 7.55566C6.07045 7.36891 6.16895 7.26634 6.2627 7.17334C6.3467 7.08934 6.44873 6.95471 6.54248 6.84521C6.63548 6.73571 6.66773 6.6577 6.72998 6.5332C6.79223 6.4087 6.76037 6.29883 6.71387 6.20508C6.66737 6.11133 6.30322 5.18691 6.13672 4.81641C5.99647 4.50516 5.84834 4.49793 5.71484 4.49268C5.60609 4.48818 5.48192 4.48828 5.35742 4.48828Z" fill="#E2EAED"/>
</svg>
